<?xml version="1.0" standalone="no"?>
<!DOCTYPE svg PUBLIC "-//W3C//DTD SVG 20010904//EN"
 "http://www.w3.org/TR/2001/REC-SVG-20010904/DTD/svg10.dtd">
<svg version="1.0" xmlns="http://www.w3.org/2000/svg"
 width="654.000000pt" height="654.000000pt" viewBox="0 0 654.000000 654.000000"
 preserveAspectRatio="xMidYMid meet">
<metadata>
Created by potrace 1.14, written by Peter Selinger 2001-2017
</metadata>
<g transform="translate(0.000000,654.000000) scale(0.100000,-0.100000)"
fill="#000000" stroke="none">
<path d="M3038 6515 c-2 -2 -30 -6 -63 -9 -116 -10 -191 -21 -305 -42 -19 -4
-42 -8 -50 -9 -8 -1 -28 -5 -45 -10 -16 -4 -75 -18 -130 -32 -448 -110 -958
-373 -1292 -668 -25 -22 -54 -46 -65 -53 -29 -21 -227 -222 -278 -282 -25 -30
-52 -61 -60 -70 -37 -38 -220 -285 -220 -298 0 -4 -14 -25 -30 -46 -17 -22
-30 -46 -30 -53 0 -7 -4 -13 -9 -13 -9 0 -219 -412 -225 -441 -2 -8 -8 -26
-14 -42 -18 -42 -102 -292 -106 -313 -2 -11 -9 -38 -16 -62 -6 -24 -13 -56
-15 -72 -2 -16 -6 -34 -10 -39 -3 -6 -8 -23 -10 -38 -2 -16 -7 -41 -10 -58 -7
-39 -13 -80 -20 -130 -4 -22 -8 -47 -10 -55 -19 -71 -27 -600 -12 -715 4 -27
10 -75 13 -105 6 -53 8 -69 19 -127 3 -16 12 -63 20 -106 37 -200 132 -493
218 -677 12 -25 21 -47 22 -50 7 -32 192 -362 207 -368 4 -2 8 -9 8 -16 0 -6
7 -21 14 -31 126 -170 212 -283 225 -297 9 -9 34 -38 56 -64 94 -109 292 -298
405 -385 25 -18 47 -36 50 -40 12 -13 180 -131 240 -168 161 -100 452 -251
483 -251 7 0 17 -4 23 -9 16 -14 238 -94 327 -117 4 -1 8 -2 10 -4 3 -2 24 -8
102 -26 39 -8 77 -18 85 -21 8 -3 24 -8 35 -10 11 -2 43 -8 70 -13 86 -17 114
-21 220 -34 28 -4 70 -9 95 -12 80 -10 503 -12 580 -3 41 5 98 11 125 14 81 7
176 22 206 31 10 2 30 6 45 9 16 2 67 13 114 25 47 11 96 23 110 26 14 3 90
28 170 55 80 27 150 51 155 53 11 3 69 28 125 53 56 25 251 121 295 146 69 39
244 152 311 202 23 16 54 39 70 50 15 11 32 25 38 30 6 6 25 21 41 34 87 66
250 222 369 352 109 119 255 317 372 506 167 269 342 731 398 1053 3 19 8 46
11 60 3 14 7 43 10 65 3 22 7 56 10 75 27 189 27 614 0 795 -2 17 -6 49 -9 72
-3 22 -7 52 -10 65 -3 12 -7 37 -10 53 -2 17 -11 60 -20 96 -8 37 -17 78 -20
90 -58 272 -228 676 -392 932 -24 37 -44 70 -44 73 0 3 -13 22 -28 42 -16 20
-62 82 -102 137 -41 55 -79 105 -85 111 -5 6 -33 38 -62 71 -117 134 -308 316
-435 413 -11 8 -32 24 -46 36 -15 12 -76 55 -137 96 -177 121 -328 204 -525
290 -63 27 -124 54 -135 58 -32 15 -235 81 -295 97 -95 25 -193 49 -236 58
-56 11 -209 37 -244 41 -19 2 -57 6 -85 9 -56 7 -552 15 -557 10z m527 -189
c57 -6 130 -16 160 -20 11 -2 40 -7 65 -10 25 -4 65 -12 90 -18 25 -5 56 -12
70 -14 79 -15 309 -82 390 -114 227 -90 557 -253 568 -281 2 -5 8 -9 14 -9 6
0 26 -11 44 -25 18 -14 37 -25 42 -25 6 0 12 -3 14 -8 2 -4 34 -29 72 -56 122
-86 248 -195 376 -325 69 -70 135 -140 148 -155 109 -131 272 -356 272 -375 0
-5 4 -11 8 -13 23 -10 179 -317 240 -473 58 -152 65 -168 67 -175 1 -3 11 -36
23 -75 24 -80 51 -187 58 -228 2 -16 6 -32 9 -37 3 -4 7 -25 10 -46 3 -22 8
-50 11 -62 3 -13 7 -43 10 -65 3 -23 7 -51 9 -62 26 -126 26 -607 1 -765 -3
-14 -10 -59 -16 -100 -20 -128 -21 -133 -25 -141 -3 -4 -7 -22 -10 -40 -2 -19
-9 -50 -14 -69 -32 -121 -46 -166 -77 -255 -19 -55 -36 -104 -38 -110 -1 -5
-10 -27 -19 -49 -9 -21 -17 -40 -17 -42 0 -2 -24 -55 -54 -118 -59 -123 -159
-302 -213 -378 -18 -26 -33 -52 -33 -57 0 -5 -4 -11 -8 -13 -5 -2 -28 -30 -52
-62 -24 -33 -49 -67 -56 -75 -7 -9 -36 -45 -65 -81 -29 -36 -112 -123 -184
-195 -169 -168 -307 -281 -480 -393 -44 -29 -84 -55 -90 -60 -47 -35 -337
-179 -454 -226 -84 -33 -230 -85 -256 -90 -5 -2 -30 -9 -55 -16 -25 -8 -47
-14 -50 -15 -103 -25 -193 -45 -220 -50 -19 -3 -61 -10 -93 -16 -33 -6 -78
-12 -100 -14 -23 -2 -78 -8 -122 -12 -148 -14 -530 -7 -655 12 -78 12 -169 27
-182 29 -7 2 -31 6 -53 10 -47 9 -263 64 -285 73 -8 3 -21 8 -27 10 -7 1 -19
5 -25 6 -19 6 -38 13 -183 69 -125 48 -403 185 -436 214 -8 8 -20 14 -25 14
-5 0 -29 14 -54 30 -25 17 -53 36 -64 43 -37 24 -252 186 -281 212 -119 104
-200 183 -274 266 -116 128 -129 144 -181 214 -25 33 -48 61 -53 63 -4 2 -7 9
-7 17 0 7 -7 18 -15 25 -25 21 -145 218 -215 355 -98 190 -145 311 -240 620
-5 17 -11 41 -14 55 -3 14 -7 36 -11 50 -13 60 -17 80 -30 160 -35 211 -39
269 -39 505 0 185 5 297 19 385 3 19 7 51 10 70 8 57 24 151 31 175 1 6 5 28
9 50 4 22 13 58 20 80 13 37 33 110 40 145 2 8 20 60 40 115 119 329 269 602
477 868 97 125 108 137 248 277 126 126 143 142 235 215 28 22 52 43 55 46 16
18 221 156 310 209 85 51 326 176 345 180 7 1 77 30 100 40 11 5 54 21 95 35
41 15 82 29 90 32 21 9 23 9 149 43 139 37 277 66 357 75 32 4 67 9 77 11 9 1
54 6 100 10 45 3 83 7 85 9 5 4 437 -4 487 -9z"/>
<path d="M2768 4585 c-10 -13 -18 -27 -18 -32 0 -5 -11 -20 -25 -35 -14 -15
-25 -29 -25 -32 0 -3 -37 -58 -83 -123 -45 -65 -90 -129 -99 -143 -33 -48
-235 -340 -277 -400 -17 -25 -47 -67 -65 -95 -54 -79 -214 -309 -223 -320 -4
-6 -26 -37 -49 -70 -22 -33 -60 -89 -85 -125 -24 -36 -46 -67 -49 -70 -3 -3
-38 -54 -79 -115 -41 -60 -77 -112 -81 -115 -3 -3 -18 -25 -34 -50 -16 -25
-38 -55 -49 -67 -11 -13 -17 -23 -14 -23 4 0 0 -8 -9 -17 -9 -10 -67 -92 -130
-183 -62 -91 -117 -170 -122 -176 -13 -14 -34 -54 -29 -54 5 0 246 111 384
177 29 14 55 24 59 23 4 -1 10 2 13 7 3 5 40 24 81 43 41 18 127 58 190 88 63
30 142 67 175 82 33 15 101 47 150 70 50 23 115 54 145 67 30 14 107 50 170
80 122 59 182 86 190 88 3 1 37 17 76 37 l71 35 32 -106 c18 -58 34 -113 36
-121 8 -33 157 -536 163 -550 3 -8 7 -19 7 -25 1 -5 5 -17 8 -25 3 -8 19 -64
36 -123 17 -59 33 -113 37 -118 3 -6 6 -35 5 -66 0 -50 1 -54 16 -41 10 8 14
8 10 1 -4 -6 -4 -14 1 -16 4 -3 9 20 10 51 1 31 14 92 28 137 14 44 27 87 29
95 9 42 18 76 24 85 3 6 6 15 7 20 2 10 23 82 90 305 19 63 36 122 38 130 2 9
25 84 50 168 25 83 46 158 46 166 0 29 22 26 106 -13 47 -23 87 -41 89 -41 2
0 69 -31 150 -70 81 -38 148 -70 150 -70 1 0 78 -36 169 -80 92 -44 169 -80
171 -80 2 0 55 -24 117 -54 62 -29 145 -68 183 -86 133 -62 284 -132 460 -216
44 -20 82 -38 85 -38 3 -1 11 -5 18 -10 7 -4 15 -6 17 -4 5 5 -65 112 -77 116
-4 2 -8 8 -8 12 0 5 -33 56 -73 112 -103 147 -131 187 -142 206 -5 9 -13 19
-16 22 -3 3 -43 61 -90 130 -46 69 -87 127 -90 130 -3 3 -34 48 -69 100 -36
52 -67 97 -70 100 -3 3 -34 48 -70 100 -35 52 -66 97 -69 100 -3 3 -10 13 -16
22 -24 42 -340 493 -347 496 -4 2 -8 8 -8 13 0 9 -23 45 -57 88 -7 9 -77 111
-157 226 -79 116 -149 215 -155 222 -6 7 -11 16 -11 21 0 5 -11 19 -25 32 -21
19 -25 21 -25 7 0 -26 -1 -30 -12 -50 -5 -10 -12 -31 -14 -45 -3 -15 -10 -32
-16 -39 -6 -7 -8 -13 -5 -13 3 0 -1 -19 -8 -42 -7 -24 -39 -126 -70 -228 -54
-174 -133 -433 -139 -455 -2 -5 -6 -17 -9 -25 -3 -8 -16 -51 -29 -95 -114
-377 -164 -533 -170 -529 -6 4 -36 94 -43 129 -5 23 -38 131 -46 150 -4 11
-34 103 -65 205 -31 102 -65 214 -76 250 -11 36 -23 79 -28 95 -4 17 -14 50
-23 75 -8 25 -25 79 -37 120 -13 41 -36 116 -52 165 -16 50 -31 99 -34 110 -2
12 -12 45 -22 75 -11 30 -20 60 -21 65 -2 19 -23 80 -30 87 -3 3 -14 -4 -23
-17z"/>
</g>
</svg>
